<svg width="65" height="65" viewBox="0 0 65 65" fill="none" xmlns="http://www.w3.org/2000/svg">
<g clip-path="url(#clip0_9_88)">
<path d="M62.6781 39.4645L40.8103 61.3322L30.921 62.6786L32.3139 52.7893L54.1353 30.9216L62.6781 39.4645Z" stroke="#30B0C7" stroke-width="6.23667" stroke-linecap="round" stroke-linejoin="round"/>
<path d="M19.8773 62.6786H8.35719C6.75642 62.6786 5.22122 62.0425 4.08929 60.9106C2.95738 59.7787 2.32147 58.2438 2.32147 56.6429V8.35719C2.32147 6.75642 2.95738 5.22122 4.08929 4.08929C5.22122 2.95738 6.75642 2.32147 8.35719 2.32147H56.6429C58.2438 2.32147 59.7787 2.95738 60.9106 4.08929C62.0425 5.22122 62.6786 6.75642 62.6786 8.35719V22.0536" stroke="#30B0C7" stroke-width="6.23667" stroke-linecap="round" stroke-linejoin="round"/>
<path d="M41.8492 22.2622C45.0545 22.2622 47.6529 19.6638 47.6529 16.4586C47.6529 13.2534 45.0545 10.655 41.8492 10.655C38.644 10.655 36.0457 13.2534 36.0457 16.4586C36.0457 19.6638 38.644 22.2622 41.8492 22.2622Z" stroke="#30B0C7" stroke-width="6.23667" stroke-linecap="round" stroke-linejoin="round"/>
<path d="M2.32147 33.2593C5.0804 32.7605 7.9222 32.5001 10.8249 32.5001C18.6334 32.5001 26.0018 34.3847 32.5 37.7237" stroke="#30B0C7" stroke-width="6.23667" stroke-linecap="round" stroke-linejoin="round"/>
</g>
<defs>
<clipPath id="clip0_9_88">
<rect width="65" height="65" fill="white"/>
</clipPath>
</defs>
</svg>
