<svg width="14" height="14" viewBox="0 0 14 14" fill="none" xmlns="http://www.w3.org/2000/svg">
<g clip-path="url(#clip0_1222_44767)">
<path d="M9.25001 5C10.3772 5 11.4582 5.44777 12.2552 6.2448C13.0522 7.04183 13.5 8.12283 13.5 9.25C13.5027 10.0866 13.2554 10.9049 12.79 11.6L13.5 13.5L11.11 13.07C10.5352 13.3503 9.90461 13.4973 9.26513 13.5C8.62566 13.5027 7.99382 13.361 7.41669 13.0856C6.83956 12.8102 6.33203 12.408 5.93191 11.9092C5.53179 11.4104 5.24939 10.8277 5.10577 10.2045C4.96215 9.58139 4.96099 8.93386 5.1024 8.31021C5.24381 7.68656 5.52413 7.10286 5.92247 6.6026C6.32081 6.10234 6.82691 5.69843 7.40305 5.42095C7.9792 5.14347 8.61053 4.99958 9.25001 5Z" stroke="white" stroke-linecap="round" stroke-linejoin="round"/>
<path d="M9.86002 2.51004C9.18659 1.65311 8.26272 1.02749 7.21703 0.720283C6.17134 0.413077 5.05588 0.439575 4.02596 0.796086C2.99604 1.1526 2.10292 1.82138 1.47093 2.70932C0.838948 3.59725 0.499561 4.66016 0.500023 5.75004C0.496924 6.78604 0.803356 7.79936 1.38002 8.66004L0.500023 11L2.62002 10.62" stroke="white" stroke-linecap="round" stroke-linejoin="round"/>
</g>
<defs>
<clipPath id="clip0_1222_44767">
<rect width="14" height="14" fill="white"/>
</clipPath>
</defs>
</svg>
